<svg width="512" height="512" viewBox="0 0 512 512" fill="none" xmlns="http://www.w3.org/2000/svg">
<g clip-path="url(#clip0)">
<path d="M383.742 138.468V47.064H384.259C392.815 47.064 399.775 40.104 399.775 31.548V15.516C399.774 6.96 392.814 0 384.258 0H127.742C119.186 0 112.226 6.96 112.226 15.516V31.548C112.226 40.104 119.186 47.064 127.742 47.064H128.259V138.468C128.259 169.083 144.567 197.886 170.819 213.637L241.423 256L170.818 298.363C144.567 314.114 128.258 342.917 128.258 373.532V464.936H127.741C119.185 464.936 112.225 471.896 112.225 480.452V496.484C112.225 505.04 119.185 512 127.741 512H384.258C392.814 512 399.774 505.04 399.774 496.484V480.452C399.774 471.896 392.814 464.936 384.258 464.936H383.741V373.532C383.741 342.917 367.433 314.114 341.181 298.363L270.577 256L341.182 213.637C367.434 197.886 383.742 169.083 383.742 138.468ZM143.258 47.064H312.11C316.252 47.064 319.61 43.706 319.61 39.564C319.61 35.422 316.252 32.064 312.11 32.064H127.742C127.457 32.064 127.226 31.833 127.226 31.548V15.516C127.226 15.231 127.457 15 127.742 15H384.259C384.544 15 384.775 15.231 384.775 15.516V31.548C384.775 31.833 384.544 32.064 384.259 32.064H344.178C340.036 32.064 336.678 35.422 336.678 39.564C336.678 43.706 340.036 47.064 344.178 47.064H368.742V138.468C368.742 151.994 364.9 165.093 358.018 176.355H153.983C147.101 165.093 143.259 151.995 143.259 138.468V47.064H143.258ZM178.536 311.225L248.5 269.246V355.131L143.258 397.228V373.531C143.258 348.155 156.776 324.281 178.536 311.225ZM199.89 464.936C195.748 464.936 192.39 468.294 192.39 472.436C192.39 476.578 195.748 479.936 199.89 479.936H384.259C384.544 479.936 384.775 480.167 384.775 480.452V496.484C384.775 496.769 384.544 497 384.259 497H127.742C127.457 497 127.226 496.769 127.226 496.484V480.452C127.226 480.167 127.457 479.936 127.742 479.936H167.823C171.965 479.936 175.323 476.578 175.323 472.436C175.323 468.294 171.965 464.936 167.823 464.936H143.259V413.385L256 368.287L368.742 413.384V464.935H199.89V464.936ZM368.742 373.532V397.229L263.5 355.132V269.247L333.464 311.226C355.224 324.281 368.742 348.155 368.742 373.532ZM256 247.253L178.536 200.774C174.033 198.072 169.888 194.9 166.138 191.354H345.863C342.112 194.9 337.968 198.072 333.465 200.774L256 247.253Z" fill="black"/>
</g>
<defs>
<clipPath id="clip0">
<rect width="512" height="512" fill="white"/>
</clipPath>
</defs>
</svg>
