<svg width="512" height="512" viewBox="0 0 512 512" fill="none" xmlns="http://www.w3.org/2000/svg">
<g clip-path="url(#clip0)">
<path d="M437.333 512H181.333C151.936 512 128 488.085 128 458.666V138.666C128 109.248 151.936 85.333 181.333 85.333H437.333C466.731 85.333 490.667 109.248 490.667 138.666V458.666C490.667 488.085 466.731 512 437.333 512ZM181.333 106.666C163.691 106.666 149.333 121.024 149.333 138.666V458.666C149.333 476.309 163.691 490.666 181.333 490.666H437.333C454.976 490.666 469.333 476.309 469.333 458.666V138.666C469.333 121.024 454.976 106.666 437.333 106.666H181.333Z" fill="black"/>
<path d="M96 448H74.6667C45.2693 448 21.3333 424.085 21.3333 394.667V53.3333C21.3333 23.9147 45.2693 0 74.6667 0H330.667C360.064 0 384 23.9147 384 53.3333C384 59.2213 379.221 64 373.333 64C367.445 64 362.667 59.2213 362.667 53.3333C362.667 35.6907 348.309 21.3333 330.667 21.3333H74.6667C57.024 21.3333 42.6667 35.6907 42.6667 53.3333V394.667C42.6667 412.309 57.024 426.667 74.6667 426.667H96C101.888 426.667 106.667 431.445 106.667 437.333C106.667 443.221 101.888 448 96 448Z" fill="black"/>
<path d="M394.667 362.666H224C218.112 362.666 213.333 357.888 213.333 352C213.333 346.112 218.112 341.333 224 341.333H394.667C400.555 341.333 405.333 346.112 405.333 352C405.333 357.888 400.555 362.666 394.667 362.666Z" fill="black"/>
<path d="M394.667 448H224C218.112 448 213.333 443.222 213.333 437.334C213.333 431.446 218.112 426.667 224 426.667H394.667C400.555 426.667 405.333 431.446 405.333 437.334C405.333 443.222 400.555 448 394.667 448Z" fill="black"/>
<path d="M394.667 277.333H224C218.112 277.333 213.333 272.555 213.333 266.667C213.333 260.779 218.112 256 224 256H394.667C400.555 256 405.333 260.779 405.333 266.667C405.333 272.555 400.555 277.333 394.667 277.333Z" fill="black"/>
<path d="M394.667 192H224C218.112 192 213.333 187.222 213.333 181.334C213.333 175.446 218.112 170.667 224 170.667H394.667C400.555 170.667 405.333 175.446 405.333 181.334C405.333 187.222 400.555 192 394.667 192Z" fill="black"/>
</g>
<defs>
<clipPath id="clip0">
<rect width="512" height="512" fill="white"/>
</clipPath>
</defs>
</svg>
