<svg width="512" height="512" viewBox="0 0 512 512" fill="none" xmlns="http://www.w3.org/2000/svg">
<path d="M508.615 174.212C505.853 170.441 501.787 167.971 497.168 167.258L348.429 144.288V17.5087C348.429 7.85976 340.578 0.00878906 330.929 0.00878906H17.4999C7.85097 0.00878906 0 7.85976 0 17.5087V331.135C0 340.784 7.85097 348.635 17.4999 348.635H134.305L119.58 443.998C118.122 453.434 124.767 462.509 134.203 463.965L443.959 511.802C453.183 513.226 462.489 506.47 463.924 497.177L471.934 445.31C473.414 435.727 458.589 433.435 457.11 443.021C456.101 449.552 451.441 497.758 446.248 496.978L136.492 449.141C135.008 448.767 134.311 447.816 134.403 446.288L149.483 348.636H166.266L154.067 427.626C153.435 431.72 156.241 435.551 160.335 436.183L427.424 477.431C431.194 478.011 435.388 475 435.981 471.163L477.302 203.598C477.934 199.504 475.128 195.673 471.034 195.041L348.428 176.106V159.466L494.878 182.083C496.362 182.457 497.058 183.408 496.967 184.936L462.95 405.202C461.511 414.519 476.27 417.232 477.774 407.491L511.791 187.225C512.505 182.605 511.376 177.984 508.615 174.212ZM14.9999 331.135V17.5087C14.9999 16.1297 16.1219 15.0087 17.4999 15.0087H330.928C332.306 15.0087 333.428 16.1297 333.428 17.5087V331.135C333.428 332.514 332.306 333.635 330.928 333.635H17.4999C16.1219 333.635 14.9999 332.514 14.9999 331.135ZM461.333 208.72L422.301 461.461L170.036 422.502L181.444 348.635H330.928C340.577 348.635 348.428 340.784 348.428 331.135V191.283L461.333 208.72Z" fill="#EAA794"/>
<path d="M309.342 31.4551H39.0859C34.9439 31.4551 31.5859 34.8121 31.5859 38.9551V76.4449C31.5859 86.1419 46.5859 86.1419 46.5859 76.4449V46.455H301.841V302.192H46.5859V116.333C46.5859 106.636 31.5859 106.636 31.5859 116.333V309.692C31.5859 313.835 34.9439 317.192 39.0859 317.192H309.341C313.483 317.192 316.841 313.835 316.841 309.692V38.9551C316.842 34.8121 313.484 31.4551 309.342 31.4551Z" fill="#EAA794"/>
<path d="M174.212 248.932C175.191 248.932 176.17 248.741 177.091 248.357C177.933 248.007 197.935 239.605 218.273 223.73C245.999 202.088 260.84 176.865 261.192 150.787C261.56 123.509 240.779 96.9385 212.19 96.9385C197.231 96.9385 183.374 104.385 174.211 116.698C165.049 104.385 151.192 96.9385 136.232 96.9385C109.212 96.9385 87.23 121.048 87.23 150.685C87.23 213.474 167.953 246.985 171.389 248.38C172.295 248.749 173.254 248.932 174.212 248.932ZM102.231 150.685C102.231 129.32 117.484 111.938 136.233 111.938C149.567 111.938 161.738 120.904 167.24 134.78C169.694 140.968 178.73 140.968 181.184 134.78C186.685 120.904 198.856 111.938 212.19 111.938C232.482 111.938 246.451 131.517 246.193 150.584C245.567 197.008 187.784 226.84 174.173 233.224C160.466 226.946 102.231 197.509 102.231 150.685Z" fill="#EAA794"/>
</svg>
