<svg width="512" height="512" viewBox="0 0 512 512" fill="none" xmlns="http://www.w3.org/2000/svg">
<path d="M321.243 46.0584C317.148 43.2714 311.939 42.6914 307.332 44.5084L122.595 117.348C116.876 119.603 113.118 125.125 113.118 131.271V382.34C101.388 373.924 87.031 368.948 71.526 368.948C32.086 368.948 0 401.034 0 440.475C0 479.914 32.086 512 71.525 512C110.964 512 143.05 479.914 143.05 440.475V208.515L297.854 150.476V299.403C286.124 290.987 271.767 286.011 256.262 286.011C216.823 286.011 184.737 318.097 184.737 357.537C184.737 396.976 216.823 429.062 256.262 429.062C295.701 429.062 327.788 396.976 327.788 357.537V58.4314C327.788 53.4784 325.337 48.8454 321.243 46.0584Z" fill="black"/>
<path d="M385.092 54.8916C376.826 54.8916 370.125 61.5926 370.125 69.8586C370.125 78.1246 376.826 84.8256 385.092 84.8256C408.464 84.8256 427.48 103.841 427.48 127.214C427.48 135.48 434.181 142.181 442.446 142.181C450.711 142.181 457.413 135.48 457.413 127.214C457.413 87.3346 424.97 54.8916 385.092 54.8916Z" fill="black"/>
<path d="M385.244 0C376.978 0 370.277 6.701 370.277 14.967C370.277 23.233 376.978 29.934 385.244 29.934C438.632 29.934 482.067 73.368 482.067 126.756C482.067 135.022 488.768 141.723 497.033 141.723C505.299 141.723 512 135.022 512 126.756C512 56.862 455.137 0 385.244 0V0Z" fill="black"/>
<path d="M385.093 142.179C393.359 142.179 400.06 135.478 400.06 127.212C400.06 118.946 393.359 112.245 385.093 112.245C376.827 112.245 370.126 118.946 370.126 127.212C370.126 135.478 376.827 142.179 385.093 142.179Z" fill="black"/>
</svg>
