<svg width="512" height="512" viewBox="0 0 512 512" fill="none" xmlns="http://www.w3.org/2000/svg">
<path d="M94.744 296.184C85.927 301.414 80 311.026 80 322C80 338.542 93.458 352 110 352C123.036 352 134.152 343.639 138.28 332H216C232.542 332 246 345.458 246 362C246 378.542 232.542 392 216 392H96C68.43 392 46 414.43 46 442C46 469.57 68.43 492 96 492H196C201.523 492 206 487.523 206 482C206 476.477 201.523 472 196 472H96C79.458 472 66 458.542 66 442C66 425.458 79.458 412 96 412H216C243.57 412 266 389.57 266 362C266 334.43 243.57 312 216 312H138.28C135.915 305.332 131.257 299.743 125.256 296.184L201.634 170.868C213.649 152.808 220 131.764 220 110C220 49.346 170.654 0 110 0C49.346 0 0 49.346 0 110C0 131.764 6.351 152.808 18.366 170.868L94.744 296.184ZM110 332C104.486 332 100 327.514 100 322C100 316.486 104.486 312 110 312C115.514 312 120 316.486 120 322C120 327.514 115.514 332 110 332ZM110 20C159.626 20 200 60.374 200 110C200 127.868 194.773 145.135 184.885 159.935C184.808 160.05 184.733 160.167 184.661 160.286L110 282.785C110 282.785 35.192 160.05 35.115 159.935C25.227 145.135 20 127.868 20 110C20 60.374 60.374 20 110 20Z" fill="black"/>
<path d="M110 160C137.57 160 160 137.57 160 110C160 82.43 137.57 60 110 60C82.43 60 60 82.43 60 110C60 137.57 82.43 160 110 160ZM110 80C126.542 80 140 93.458 140 110C140 126.542 126.542 140 110 140C93.458 140 80 126.542 80 110C80 93.458 93.458 80 110 80Z" fill="black"/>
<path d="M402 166C341.346 166 292 215.346 292 276C292 297.799 298.371 318.875 310.424 336.954L386.517 456.314C380.625 459.879 376.056 465.415 373.721 472H286C280.477 472 276 476.477 276 482C276 487.523 280.477 492 286 492H373.72C377.848 503.639 388.963 512 402 512C418.542 512 432 498.542 432 482C432 471.119 426.177 461.574 417.484 456.314L493.577 336.954C505.629 318.875 512 297.799 512 276C512 215.346 462.654 166 402 166ZM402 492C396.486 492 392 487.514 392 482C392 476.486 396.486 472 402 472C407.514 472 412 476.486 412 482C412 487.514 407.514 492 402 492ZM476.885 325.935C476.846 325.995 402 443.397 402 443.397C402 443.397 327.154 325.994 327.115 325.935C317.227 311.135 312 293.868 312 276C312 226.374 352.374 186 402 186C451.626 186 492 226.374 492 276C492 293.868 486.773 311.135 476.885 325.935Z" fill="black"/>
<path d="M402 226C374.43 226 352 248.43 352 276C352 303.57 374.43 326 402 326C429.57 326 452 303.57 452 276C452 248.43 429.57 226 402 226ZM402 306C385.458 306 372 292.542 372 276C372 259.458 385.458 246 402 246C418.542 246 432 259.458 432 276C432 292.542 418.542 306 402 306Z" fill="black"/>
<path d="M241 492C246.523 492 251 487.523 251 482C251 476.477 246.523 472 241 472C235.477 472 231 476.477 231 482C231 487.523 235.477 492 241 492Z" fill="black"/>
</svg>
