<svg width="512" height="512" viewBox="0 0 512 512" fill="none" xmlns="http://www.w3.org/2000/svg">
<g clip-path="url(#clip0)">
<path d="M408 47.9997H392V19.5167C392 15.9658 391.212 12.459 389.693 9.24933C388.174 6.03965 385.962 3.20702 383.216 0.955696C380.47 -1.29563 377.259 -2.90954 373.813 -3.76966C370.368 -4.62979 366.775 -4.7147 363.293 -4.01827L103.093 48.0227C96.8924 48.2634 91.0254 50.894 86.7207 55.3634C82.4161 59.8328 80.0077 65.7944 80 71.9997V472C80.0074 478.363 82.5384 484.463 87.0376 488.962C91.5369 493.461 97.6371 495.992 104 496H408C414.363 495.992 420.463 493.461 424.962 488.962C429.462 484.463 431.993 478.363 432 472V71.9997C431.993 65.6368 429.462 59.5366 424.962 55.0374C420.463 50.5381 414.363 48.0071 408 47.9997ZM366.431 11.6717C367.592 11.4396 368.789 11.4679 369.938 11.7546C371.086 12.0413 372.157 12.5793 373.072 13.3297C373.987 14.0802 374.725 15.0244 375.231 16.0943C375.737 17.1642 376 18.3331 376 19.5167V47.9997H184.792L366.431 11.6717ZM104 63.9997H408C410.121 64.0021 412.154 64.8457 413.654 66.3455C415.154 67.8453 415.998 69.8787 416 71.9997V152H383.821C383.432 148.782 382.395 145.676 380.772 142.87C379.15 140.064 376.976 137.616 374.381 135.674C371.786 133.732 368.824 132.336 365.675 131.57C362.525 130.804 359.253 130.685 356.056 131.219L289.916 142.239C287.968 140.262 285.645 138.692 283.085 137.621C280.524 136.55 277.776 135.999 275 136H237C234.224 135.999 231.476 136.55 228.915 137.621C226.355 138.692 224.032 140.262 222.084 142.239L155.949 131.22C152.752 130.685 149.479 130.804 146.329 131.569C143.179 132.334 140.217 133.73 137.621 135.672C135.026 137.615 132.851 140.063 131.228 142.869C129.605 145.675 128.568 148.781 128.179 152H96V71.9997C96.0024 69.8787 96.846 67.8453 98.3458 66.3455C99.8456 64.8457 101.879 64.0021 104 63.9997ZM384 168H416V184H384V168ZM216 168H184V184H216V194.554L153.311 205C152.165 205.191 150.992 205.13 149.872 204.822C148.752 204.513 147.713 203.964 146.826 203.213C145.94 202.462 145.228 201.527 144.74 200.473C144.252 199.419 143.999 198.271 144 197.11V154.89C143.999 153.728 144.252 152.579 144.74 151.525C145.228 150.47 145.941 149.535 146.827 148.784C147.714 148.033 148.754 147.484 149.874 147.176C150.995 146.868 152.169 146.808 153.315 147L216 157.446V168ZM222.084 209.761C224.564 212.268 227.635 214.11 231.014 215.119L223.532 286.91L190.556 293.61L211.841 211.468L222.084 209.761ZM237 200C235.674 199.998 234.404 199.471 233.466 198.534C232.529 197.596 232.002 196.325 232 195V157C232.002 155.674 232.529 154.403 233.466 153.466C234.404 152.529 235.674 152.001 237 152H275C276.326 152.001 277.596 152.529 278.534 153.466C279.471 154.403 279.998 155.674 280 157V195C279.998 196.325 279.471 197.596 278.534 198.534C277.596 199.471 276.326 199.998 275 200H237ZM289.916 209.761L300.159 211.468L321.444 293.61L288.468 286.91L280.986 215.119C284.365 214.11 287.436 212.268 289.916 209.761ZM296 194.554V184H328V168H296V157.446L358.689 147C359.835 146.809 361.008 146.869 362.128 147.178C363.248 147.486 364.287 148.035 365.174 148.786C366.06 149.537 366.772 150.472 367.26 151.526C367.748 152.58 368.001 153.728 368 154.89V197.11C368.001 198.272 367.748 199.42 367.26 200.475C366.772 201.529 366.059 202.464 365.173 203.216C364.286 203.967 363.246 204.515 362.126 204.823C361.005 205.132 359.831 205.192 358.685 205L296 194.554ZM128 184H96V168H128V184ZM408 480H104C101.879 479.997 99.8456 479.154 98.3458 477.654C96.846 476.154 96.0024 474.121 96 472V200H128.179C128.567 203.218 129.603 206.324 131.225 209.131C132.848 211.937 135.022 214.386 137.617 216.328C140.212 218.27 143.175 219.666 146.324 220.432C149.474 221.197 152.747 221.316 155.944 220.781L194.567 214.346L171.855 301.993C171.514 303.306 171.514 304.685 171.853 305.999C172.192 307.313 172.86 308.52 173.794 309.504C174.728 310.489 175.897 311.22 177.191 311.629C178.485 312.037 179.862 312.11 181.192 311.84L232.473 301.42C234.142 301.081 235.659 300.218 236.804 298.957C237.948 297.696 238.661 296.103 238.837 294.409L247.009 216H264.991L273.163 294.409C273.339 296.103 274.052 297.696 275.196 298.957C276.341 300.218 277.858 301.081 279.527 301.42L330.808 311.84C332.138 312.11 333.515 312.037 334.809 311.629C336.103 311.22 337.272 310.489 338.206 309.504C339.14 308.52 339.808 307.313 340.147 305.999C340.486 304.685 340.486 303.306 340.145 301.993L317.433 214.346L356.051 220.78C359.248 221.315 362.521 221.196 365.671 220.43C368.821 219.665 371.783 218.269 374.379 216.327C376.974 214.385 379.149 211.937 380.772 209.13C382.395 206.324 383.432 203.218 383.821 200H416V472C415.998 474.121 415.154 476.154 413.654 477.654C412.154 479.154 410.121 479.997 408 480Z" fill="#EAA794"/>
<path d="M384 448H128V224H112V456C112 458.122 112.843 460.157 114.343 461.657C115.843 463.157 117.878 464 120 464H392C394.122 464 396.157 463.157 397.657 461.657C399.157 460.157 400 458.122 400 456V224H384V448Z" fill="#EAA794"/>
<path d="M128 96H384V128H400V88C400 85.8783 399.157 83.8434 397.657 82.3431C396.157 80.8429 394.122 80 392 80H120C117.878 80 115.843 80.8429 114.343 82.3431C112.843 83.8434 112 85.8783 112 88V128H128V96Z" fill="#EAA794"/>
<path d="M184 336H200V352H184V336Z" fill="#EAA794"/>
<path d="M216 336H344V352H216V336Z" fill="#EAA794"/>
<path d="M168 368H344V384H168V368Z" fill="#EAA794"/>
<path d="M168 400H328V416H168V400Z" fill="#EAA794"/>
<rect x="128" y="124" width="256" height="197" fill="white"/>
<path d="M193.028 218.868H181.339V239H174.742V189.234H191.217C196.822 189.234 201.129 190.51 204.137 193.062C207.167 195.615 208.683 199.329 208.683 204.205C208.683 207.304 207.84 210.004 206.153 212.306C204.49 214.607 202.166 216.327 199.181 217.467L210.87 238.59V239H203.829L193.028 218.868ZM181.339 213.502H191.422C194.68 213.502 197.267 212.659 199.181 210.973C201.118 209.286 202.086 207.031 202.086 204.205C202.086 201.129 201.163 198.771 199.317 197.13C197.494 195.489 194.851 194.658 191.388 194.635H181.339V213.502ZM232.574 216.817C226.946 215.2 222.844 213.217 220.27 210.87C217.717 208.5 216.441 205.584 216.441 202.12C216.441 198.201 218.002 194.965 221.124 192.413C224.269 189.838 228.347 188.551 233.36 188.551C236.778 188.551 239.82 189.212 242.486 190.533C245.175 191.855 247.249 193.678 248.707 196.002C250.188 198.326 250.929 200.867 250.929 203.624H244.332C244.332 200.616 243.375 198.258 241.461 196.549C239.547 194.817 236.847 193.951 233.36 193.951C230.125 193.951 227.595 194.669 225.772 196.104C223.972 197.517 223.072 199.488 223.072 202.018C223.072 204.046 223.927 205.766 225.636 207.179C227.368 208.569 230.296 209.845 234.42 211.007C238.567 212.169 241.803 213.456 244.127 214.869C246.474 216.259 248.206 217.888 249.322 219.757C250.462 221.625 251.031 223.824 251.031 226.354C251.031 230.387 249.459 233.622 246.314 236.061C243.17 238.476 238.966 239.684 233.702 239.684C230.284 239.684 227.094 239.034 224.132 237.735C221.17 236.414 218.88 234.614 217.262 232.335C215.667 230.056 214.869 227.47 214.869 224.576H221.466C221.466 227.584 222.571 229.965 224.781 231.72C227.014 233.451 229.988 234.317 233.702 234.317C237.166 234.317 239.82 233.611 241.666 232.198C243.512 230.785 244.435 228.86 244.435 226.422C244.435 223.984 243.58 222.104 241.871 220.782C240.162 219.438 237.063 218.116 232.574 216.817ZM275.948 230.284L290.167 189.234H297.345L278.888 239H273.077L254.654 189.234H261.798L275.948 230.284ZM310.606 219.518V239H304.044V189.234H322.398C327.844 189.234 332.105 190.624 335.182 193.404C338.281 196.184 339.83 199.864 339.83 204.444C339.83 209.275 338.315 213.001 335.284 215.621C332.276 218.219 327.958 219.518 322.33 219.518H310.606ZM310.606 214.151H322.398C325.908 214.151 328.596 213.331 330.465 211.69C332.333 210.027 333.268 207.634 333.268 204.513C333.268 201.55 332.333 199.181 330.465 197.403C328.596 195.626 326.033 194.703 322.774 194.635H310.606V214.151Z" fill="#EAA794"/>
</g>
<defs>
<clipPath id="clip0">
<rect width="512" height="512" fill="white"/>
</clipPath>
</defs>
</svg>
